<?xml version="1.0" encoding="utf-8"?>
<!-- Generator: Adobe Illustrator 24.1.0, SVG Export Plug-In . SVG Version: 6.00 Build 0)  -->
<svg version="1.1" id="Layer_1" xmlns="http://www.w3.org/2000/svg" xmlns:xlink="http://www.w3.org/1999/xlink" x="0px" y="0px"
	 viewBox="0 0 50 50" style="enable-background:new 0 0 50 50;" xml:space="preserve">
<style type="text/css">
	.st0{fill:#00AEFF;}
	.st1{display:none;fill:#FED136;}
</style>
<path class="st0" d="M9.2,41.7l2.8-2.8c-0.1-0.1-0.3-0.2-0.4-0.3C8,34.9,6,30.1,6,25C6,14.5,14.5,6,25,6c5.5,0,10.4,2.3,13.8,6
	l2.8-2.8C37.5,4.8,31.6,2,25,2C12.3,2,2,12.3,2,25c0,6.2,2.4,12,6.8,16.4C8.9,41.5,9.1,41.6,9.2,41.7z"/>
<path class="st1" d="M35.7,13.1l-2.1,2.1c2.7,2.4,4.4,5.9,4.4,9.8c0,7.2-5.8,13-13,13c-3.9,0-7.4-1.7-9.8-4.4l-2.1,2.1
	C16.1,38.9,20.3,41,25,41c8.8,0,16-7.2,16-16C41,20.3,38.9,16.1,35.7,13.1z"/>
</svg>
