<?xml version="1.0" encoding="utf-8"?>
<!-- Generator: Adobe Illustrator 24.1.0, SVG Export Plug-In . SVG Version: 6.00 Build 0)  -->
<svg version="1.1" id="Layer_1" xmlns="http://www.w3.org/2000/svg" xmlns:xlink="http://www.w3.org/1999/xlink" x="0px" y="0px"
	 viewBox="0 0 1366 768" style="enable-background:new 0 0 1366 768;" xml:space="preserve">
<style type="text/css">
	.st0{fill:#E5E5E5;}
	.st1{fill:#222222;}
	.st2{fill:#F9F9F9;}
	.st3{display:none;}
	.st4{display:inline;fill:#BCBCBC;}
</style>
<g id="Layer_2_1_">
	<rect x="-16" y="-14" class="st0" width="1390" height="792"/>
</g>
<g id="Layer_3">
	<path class="st1" d="M-46.8,612.7c0,0,29,81,102,102s136.2-19.6,162-28c26.2-8.5,79-42,188,5s152,46,189,37s87-47,150-45
		s85,51,164,45s116-56,166-56s73,47,155,47s169-87,169-87l146,179l-271,303l-1230-135l-154-194L-46.8,612.7z"/>
</g>
<g id="Background_Simple_1_">
	<g id="XMLID_4_">
		<g>
			<path class="st2" d="M1237.9,514.2c13.6,16.7,18.8,45.3,15,70c-3.7,24.7-8.4,42.9-18.6,63.1c-13.4,26.7-37.3,33.8-51.7,36.1
				c-40.6,8.7-65.6-41-105.6-43.2c-29.2,2.9-66.5,49.3-96,17.3c-10.8-13.7-19.2-25-26.1-43.3c-11.5-30.6-17.5-65.8-15-99.9
				c2.5-34.1,13.8-66.7,32.3-86.9c18.5-20.2,44.1-27,66.3-15c33.5,18.1,54.6,73.1,89,86.8c18.3,7.3,37.4,1.5,56.1-1.4
				C1202.4,495,1223.2,496.2,1237.9,514.2z"/>
		</g>
	</g>
</g>
<g id="Background_Simple_3_">
	<g id="XMLID_2_">
		<g>
			<path class="st2" d="M401.7,448.8c21.2,13.8,41.6,30.6,66.6,35.2c46.9,8.6,95.2-27.6,143-23.5c31.7,2.8,59.6,24.3,73.2,53.5
				c13.6,29.2,13.5,65.1,2.2,97c-11.3,31.9-33.3,59.7-59.9,80c-15.9,12.2-34.1,20.4-52.8,26.1c-25.6,7.8-74.5,0.5-108.2-19.7
				c-48.8-22.3-95.5-50.2-140.6-82.5c-16.4-10.8-41.9-31.6-46.8-63.5c-3.7-24.1-1.7-43.2,4.2-67.5c5.9-24.3,24.1-46.7,47.4-53.3
				C355.1,423.4,380.5,435,401.7,448.8z"/>
		</g>
	</g>
</g>
<g id="Layer_1_1_" class="st3">
	<path class="st4" d="M1408.1-129l-463-24l-848-9c0,0-505,163-379,212s277,110,436,116s432-77,506-93s321-16,474,20
		s236.5,145.5,236.5,145.5L1408.1-129z"/>
</g>
</svg>
