<?xml version="1.0" encoding="utf-8"?>
<!-- Generator: Adobe Illustrator 24.1.0, SVG Export Plug-In . SVG Version: 6.00 Build 0)  -->
<svg version="1.1" id="Layer_1" xmlns="http://www.w3.org/2000/svg" xmlns:xlink="http://www.w3.org/1999/xlink" x="0px" y="0px"
	 viewBox="0 0 508 508" style="enable-background:new 0 0 508 508;" xml:space="preserve">
<style type="text/css">
	.st0{fill:#E5E5E5;}
	.st1{fill:#00AEFF;}
	.st2{fill:#D2AA65;}
	.st3{fill:#E5B325;}
	.st4{fill:#FED136;}
	.st5{fill:#30C8FC;}
	.st6{fill:#C69855;}
	.st7{fill:#E2B578;}
	.st8{fill:#222222;}
	.st9{fill:#5B4118;}
	.st10{fill:none;stroke:#000222;stroke-width:11;stroke-miterlimit:10;}
</style>
<circle class="st0" cx="256.5" cy="254.3" r="226.3"/>
<g>
	<path class="st1" d="M257.9,351.5c-0.4,0-0.7,0.4-1.4,0.4c-0.4,0-0.7-0.4-1.4-0.4H257.9z"/>
	<path class="st1" d="M438.9,387.9c-41,55.9-107.6,92.6-182.4,92.6s-141.1-36.3-182.4-92.6c32.1-34.2,75.5-52.4,111.9-61.6
		c-3.2,26,10.3,60.9,10.7,59.9c13.5-31.4,59.5-34.2,59.5-34.2s46,2.5,59.9,34.2c0.4,0.7,13.9-33.8,10.7-59.9
		C363.4,335.5,406.8,353.7,438.9,387.9z"/>
</g>
<path class="st2" d="M312.8,302.4L312.8,302.4c0,4.6-2.9,29.2-54.9,49.2h-2.9c-52-20-54.9-44.5-54.9-49.2l0,0
	c0.4-9.3,2.5-18.5,6.4-27.1c14.3,16,31.4,26.7,49.9,26.7c18.2,0,35.6-10.3,49.9-26.7C310.3,283.8,312.8,293.1,312.8,302.4z"/>
<path class="st3" d="M287.5,359.7l-11.4,22.8h-39.2l-11.4-22.8c15.7-6.8,31-7.8,31-7.8S272.2,353,287.5,359.7z"/>
<path class="st4" d="M224.4,478.1c10.3,1.4,21,2.2,32.1,2.2c10.7,0,21.4-0.7,32.1-2.2l-12.5-96.2h-39.2L224.4,478.1z"/>
<g>
	<path class="st5" d="M312.7,301.7c0,0,2.5,28.5-56.3,50.2c0,0,46,2.5,59.9,34.2C316.6,387.5,343.3,318.4,312.7,301.7z"/>
	<path class="st5" d="M200.1,301.7c-30.3,16.7-3.9,85.5-3.2,84.4c13.5-31.4,59.9-34.2,59.9-34.2
		C197.6,330.2,200.1,301.7,200.1,301.7z"/>
</g>
<path class="st6" d="M309.2,282.4c-15,16-32.8,26.4-52.7,26.4s-37.8-10.3-52.7-26.4c0.7-2.5,1.8-5,2.9-7.1
	c14.3,16,31.4,26.7,49.9,26.7s35.6-10.3,49.9-26.7C307.4,277.4,308.5,279.9,309.2,282.4z"/>
<path class="st7" d="M353.8,227.9c-7.5,12.5-18.9,20-27.4,18.5c-17.1,31.7-42,55.2-69.8,55.2s-52.7-23.9-69.8-55.2
	c-8.6,1.1-20-6.1-27.4-18.5c-8.9-14.6-9.3-30.6-0.7-36c2.1-1.1,4.3-1.8,6.8-1.4c5.7,14.6,13.5,23.5,13.5,23.5
	c-8.2-45.3,25.3-50.2,19.6-93.7c0,0,21,46.7,81.2,13.9l-4.6,8.9c84.1-18.9,55.9,80.2,55.2,82.7c9.6-12.1,15.7-24.2,19.2-35.3
	c1.4,0,3.2,0.7,4.3,1.4C363.1,196.9,362.7,213.3,353.8,227.9z"/>
<path class="st8" d="M304.7,73.3c6.8-0.7,17.8,5.3,17.8,5.3c-30.3-34.6-79.8-12.5-79.8-12.5c16.7-14.3,31.7-12.8,31.7-12.8
	c-70.9-10.7-83,31.7-83,31.7c-3.2-5-3.2-12.1-2.9-15.7c-5,8.6,0.4,25.7,0.4,25.7c-5-12.5-22.4-10.3-22.4-10.3
	c15,2.5,17.5,11.8,17.5,11.8c-37.4,13.9-31,52.7-31,52.7l8.9-10.7c-11,42.4,17.1,75.2,17.1,75.2c-8.2-45.3,25.3-50.2,19.6-93.7
	c0,0,21,46.7,81.2,13.9l-4.6,8.9c85.2-19.2,55.2,83,55.2,83c30.3-38.5,25.7-78,25.7-78l3.6,14.3C369.1,97.9,304.7,73.3,304.7,73.3z"
	/>
<circle class="st9" cx="291.1" cy="195" r="8.9"/>
<circle class="st9" cx="221.6" cy="195" r="8.9"/>
<circle class="st10" cx="256.7" cy="254.8" r="230.7"/>
</svg>
